 <svg  version="1.0" xmlns="http://www.w3.org/2000/svg"  width="300.000000pt" height="235.000000pt" viewBox="0 0 300.000000 235.000000"  preserveAspectRatio="xMidYMid meet">  <g transform="translate(0.000000,235.000000) scale(0.100000,-0.100000)" fill="#1c8256" stroke="none"> <path d="M1725 2246 c-174 -43 -307 -191 -333 -371 -7 -45 -10 -50 -40 -56 -42 -8 -96 -46 -116 -80 -24 -41 -20 -49 28 -49 37 0 50 -6 80 -36 30 -30 41 -35 64 -30 15 4 39 20 53 36 21 25 33 30 72 30 25 0 48 4 51 8 16 26 -94 122 -140 122 -32 0 -33 6 -19 76 43 203 228 347 428 331 173 -13 302 -109 369 -276 23 -55 23 -62 26 -608 l3 -553 -21 0 c-12 0 -37 -15 -56 -34 l-34 -34 0 -311 0 -311 -224 0 c-123 0 -233 -3 -243 -7 -15 -5 -15 -2 5 19 32 35 30 90 -4 117 -45 35 -96 24 -122 -26 -17 -32 -15 -60 8 -83 11 -11 20 -21 20 -22 0 -2 -61 -3 -135 -3 -74 0 -135 3 -135 8 0 4 4 7 9 7 16 0 31 59 21 84 -11 30 -47 56 -78 56 -13 0 -37 -14 -54 -30 -25 -26 -29 -36 -24 -63 3 -18 13 -37 21 -43 8 -6 15 -13 15 -15 0 -2 -73 -4 -162 -4 -99 0 -165 -4 -168 -10 -3 -7 270 -11 808 -13 650 -2 813 0 810 10 -3 8 -28 14 -67 16 l-61 3 0 304 c1 194 -3 312 -9 324 -14 26 -60 61 -80 61 -15 0 -16 45 -13 492 3 550 -3 629 -47 725 -87 184 -307 288 -506 239z m-287 -452 c17 -4 48 -21 69 -40 l38 -33 -144 -1 -144 0 19 21 c21 24 89 58 115 59 9 0 30 -3 47 -6z m9 -108 c9 -8 -27 -35 -48 -36 -8 0 -24 7 -35 15 -16 13 -17 16 -4 25 15 10 76 8 87 -4z m849 -931 c61 -25 65 -47 63 -370 l-1 -285 -96 0 -97 0 2 300 c2 194 7 308 14 321 6 11 25 27 42 34 40 18 32 18 73 0z m-987 -567 c14 -24 14 -28 -3 -47 -23 -25 -53 -27 -78 -4 -22 20 -23 32 -2 61 22 31 63 26 83 -10z m358 2 c18 -36 -4 -65 -48 -65 -27 0 -35 5 -43 27 -21 59 63 94 91 38z"/> <path d="M1312 1562 c-6 -20 -27 -82 -47 -137 -19 -55 -37 -107 -39 -115 -3 -8 -10 -28 -17 -45 -7 -16 -11 -34 -11 -38 1 -4 -4 -20 -13 -36 -8 -16 -11 -31 -8 -35 4 -3 1 -6 -5 -6 -6 0 -9 -7 -6 -15 4 -8 2 -15 -4 -15 -5 0 -12 -9 -15 -20 -3 -11 -1 -20 3 -20 5 0 21 33 36 73 15 39 38 99 52 132 13 33 31 83 39 110 8 28 21 61 28 75 7 14 18 39 24 55 11 29 13 30 75 30 l64 0 18 -55 c10 -30 28 -79 40 -107 13 -29 21 -53 19 -53 -3 0 4 -15 14 -32 10 -18 24 -51 31 -73 7 -22 17 -46 23 -53 6 -7 12 -25 13 -39 2 -15 10 -33 20 -42 15 -15 15 -14 0 15 -8 17 -13 34 -10 37 3 3 -2 19 -11 37 -9 18 -18 39 -20 48 -2 10 -16 49 -30 87 -14 39 -28 77 -30 85 -14 47 -63 185 -66 184 -62 -24 -92 -26 -123 -11 l-34 16 -10 -37z"/> <path d="M748 1230 c-83 -25 -151 -102 -169 -193 -36 -176 146 -341 313 -285 34 12 58 13 107 6 34 -5 66 -7 69 -3 3 3 0 32 -9 64 -12 47 -13 63 -2 87 16 37 16 116 1 165 -35 119 -186 196 -310 159z m167 -39 c45 -20 91 -69 112 -118 17 -42 17 -131 -2 -166 -12 -24 -12 -34 0 -74 8 -26 13 -48 12 -49 -1 -1 -26 2 -55 6 -39 7 -61 5 -87 -6 -120 -50 -264 38 -290 178 -10 52 17 136 57 177 67 69 170 90 253 52z"/> <path d="M724 1065 c-4 -9 -2 -21 4 -27 16 -16 47 -5 47 17 0 26 -42 34 -51 10z"/> <path d="M864 1065 c-4 -9 -2 -21 4 -27 16 -16 47 -5 47 17 0 26 -42 34 -51 10z"/> <path d="M753 961 c-46 -29 -71 -81 -39 -81 8 0 18 9 21 20 8 24 54 50 91 50 18 0 38 -12 60 -35 37 -40 44 -42 44 -17 0 10 -13 31 -29 46 -39 38 -103 45 -148 17z"/> <path d="M1130 1060 c0 -5 5 -10 11 -10 5 0 7 5 4 10 -3 6 -8 10 -11 10 -2 0 -4 -4 -4 -10z"/> <path d="M1672 1020 c7 -10 14 -18 15 -16 6 6 -9 36 -18 36 -5 0 -4 -9 3 -20z"/> <path d="M1751 833 c-19 -20 -37 -57 -54 -114 -71 -231 -86 -274 -96 -272 -6 2 -95 14 -198 27 -103 13 -200 29 -214 36 -22 10 -29 24 -44 91 -15 64 -16 81 -5 94 11 13 48 15 251 15 207 0 239 2 239 15 0 13 -32 15 -246 13 l-247 -3 -20 -27 c-19 -25 -19 -32 -8 -81 25 -111 31 -127 61 -142 16 -8 118 -26 226 -40 109 -14 204 -31 211 -37 7 -6 13 -18 13 -27 0 -37 -19 -41 -210 -41 -167 0 -188 -2 -217 -20 -18 -11 -33 -24 -33 -29 0 -15 21 -25 29 -14 17 28 57 33 235 33 176 0 187 1 207 21 18 18 20 29 16 64 -5 34 4 75 43 201 28 87 50 162 50 167 0 5 9 22 21 38 18 25 27 29 71 29 65 0 61 24 -5 28 -41 3 -51 -1 -76 -25z"/> <path d="M500 85 c0 -13 10 -15 50 -13 67 4 69 22 3 26 -43 2 -53 0 -53 -13z"/> <path d="M627 94 c-17 -17 13 -24 109 -24 86 0 104 3 104 15 0 12 -18 15 -103 15 -57 0 -107 -3 -110 -6z"/> </g> </svg> 