<?xml version="1.0" standalone="no"?>
<!DOCTYPE svg PUBLIC "-//W3C//DTD SVG 20010904//EN"
 "http://www.w3.org/TR/2001/REC-SVG-20010904/DTD/svg10.dtd">
<svg version="1.0" xmlns="http://www.w3.org/2000/svg"
 width="300.000000pt" height="300.000000pt" viewBox="0 0 300.000000 300.000000"
 preserveAspectRatio="xMidYMid meet">
<metadata>
Created by potrace 1.10, written by Peter Selinger 2001-2011
</metadata>
<g transform="translate(0.000000,300.000000) scale(0.100000,-0.100000)"
fill="#147b38" stroke="none">
<path d="M1320 2926 c0 -14 5 -26 10 -26 6 0 10 9 10 19 0 11 -4 23 -10 26 -6
4 -10 -5 -10 -19z"/>
<path d="M1270 2923 c0 -13 29 -38 35 -31 3 3 -4 13 -15 23 -11 10 -20 13 -20
8z"/>
<path d="M1360 2915 c-18 -21 -3 -32 16 -13 10 9 12 18 6 22 -5 3 -15 -1 -22
-9z"/>
<path d="M1250 2870 c0 -5 12 -10 26 -10 14 0 23 4 19 10 -3 6 -15 10 -26 10
-10 0 -19 -4 -19 -10z"/>
<path d="M1360 2870 c0 -5 12 -10 26 -10 14 0 23 4 19 10 -3 6 -15 10 -26 10
-10 0 -19 -4 -19 -10z"/>
<path d="M1280 2835 c-7 -9 -10 -18 -7 -22 8 -7 37 15 37 28 0 14 -16 11 -30
-6z"/>
<path d="M1350 2843 c0 -13 29 -38 35 -31 3 3 -4 13 -15 23 -11 10 -20 13 -20
8z"/>
<path d="M1321 2818 c-1 -16 4 -28 9 -28 12 0 12 8 0 35 -8 18 -9 17 -9 -7z"/>
<path d="M2168 2636 c-24 -18 -23 -33 3 -46 25 -14 26 -13 31 24 3 33 -9 41
-34 22z m18 -33 c-10 -10 -19 5 -10 18 6 11 8 11 12 0 2 -7 1 -15 -2 -18z"/>
<path d="M820 2555 c0 -8 -7 -15 -15 -15 -8 0 -15 -4 -15 -10 0 -5 7 -10 15
-10 8 0 15 -7 15 -15 0 -8 5 -15 10 -15 6 0 10 7 10 15 0 8 7 15 15 15 8 0 15
5 15 10 0 6 -7 10 -15 10 -8 0 -15 7 -15 15 0 8 -4 15 -10 15 -5 0 -10 -7 -10
-15z m20 -25 c0 -5 -4 -10 -10 -10 -5 0 -10 5 -10 10 0 6 5 10 10 10 6 0 10
-4 10 -10z"/>
<path d="M1035 2531 c-11 -5 -29 -19 -40 -31 -20 -22 -20 -38 -23 -701 -3
-736 -4 -720 51 -751 29 -17 906 -15 937 2 39 21 50 62 50 181 l0 113 28 -27
c36 -35 76 -35 98 -2 16 24 15 27 -9 63 -15 20 -47 54 -71 75 l-45 38 -3 494
-3 495 -28 27 -27 28 -448 2 c-246 1 -456 -2 -467 -6z m930 -36 l25 -24 0
-478 0 -477 -49 48 c-35 35 -55 47 -72 45 -48 -7 -50 9 -9 73 22 34 40 65 40
70 0 20 -17 4 -39 -38 -30 -55 -110 -130 -171 -158 -65 -30 -235 -30 -300 0
-71 33 -153 114 -184 183 -50 111 -43 254 17 348 73 115 186 175 325 175 57 0
81 3 74 10 -6 6 -46 9 -100 6 -70 -3 -100 -10 -144 -31 -87 -43 -142 -98 -185
-184 -35 -71 -38 -82 -37 -167 0 -77 4 -100 26 -146 53 -114 132 -186 242
-223 63 -22 169 -22 232 0 53 18 144 72 144 87 0 4 7 3 15 -4 9 -8 12 -22 8
-41 -5 -26 3 -38 81 -117 l86 -88 0 -130 c-1 -134 -5 -150 -47 -172 -31 -17
-875 -17 -906 0 -48 25 -46 4 -47 726 l0 683 25 24 24 25 451 0 451 0 24 -25z
m42 -1017 c68 -68 123 -130 123 -138 0 -20 -19 -40 -38 -40 -20 0 -252 238
-252 259 0 19 18 41 34 41 6 0 66 -55 133 -122z"/>
<path d="M1137 2366 c-3 -8 -3 -17 0 -20 8 -8 708 -8 716 0 3 3 3 12 0 20 -8
21 -708 21 -716 0z m313 -6 c-15 -9 -279 -9 -285 0 -2 4 63 7 146 7 83 0 146
-3 139 -7z m50 0 c0 -5 -7 -10 -15 -10 -8 0 -15 5 -15 10 0 6 7 10 15 10 8 0
15 -4 15 -10z m44 2 c2 -4 -4 -9 -15 -9 -10 -1 -19 2 -19 8 0 11 27 12 34 1z
m86 -2 c0 -5 -16 -10 -35 -10 -19 0 -35 4 -35 8 0 4 16 9 35 10 19 2 35 -2 35
-8z m195 1 c5 -9 -170 -9 -179 0 -4 3 34 6 84 7 49 0 92 -3 95 -7z"/>
<path d="M1140 2266 c-5 -5 -6 -15 -3 -22 4 -11 28 -14 95 -14 77 0 89 2 79
14 -10 12 -7 15 21 18 18 2 -16 6 -75 9 -59 2 -112 0 -117 -5z m150 -17 c0
-12 -101 -11 -120 1 -10 7 6 9 53 9 37 -1 67 -5 67 -10z"/>
<path d="M1775 2269 l-60 -6 60 -3 c44 -2 51 -4 25 -7 -58 -7 -60 -23 -3 -23
35 0 53 4 56 14 9 24 -15 31 -78 25z"/>
<path d="M1660 2250 c0 -5 -46 -11 -102 -13 -103 -3 -103 -3 17 -3 76 0 128
-5 143 -12 13 -8 22 -9 22 -3 0 11 -51 41 -70 41 -5 0 -10 -4 -10 -10z"/>
<path d="M1770 2192 c0 -4 16 -24 36 -43 61 -58 95 -139 103 -243 6 -82 8 -87
15 -50 10 55 -7 143 -41 213 -15 31 -27 62 -26 68 0 7 -3 11 -7 8 -4 -2 -20 9
-35 25 -28 30 -45 38 -45 22z"/>
<path d="M1360 2179 c23 -10 389 -3 399 7 2 2 -92 4 -210 3 -156 0 -207 -3
-189 -10z"/>
<path d="M1152 2148 c-7 -7 -11 -38 -10 -77 1 -46 3 -54 5 -26 3 22 9 45 15
50 8 7 9 5 5 -8 -4 -11 -3 -16 3 -12 6 3 10 15 10 25 0 10 6 20 13 23 6 2 9 7
6 11 -4 4 -14 -1 -23 -10 -9 -9 -19 -14 -22 -11 -11 11 7 27 39 36 l32 9 -30
1 c-17 1 -36 -4 -43 -11z"/>
<path d="M1305 2141 c-18 -5 73 -9 234 -10 145 0 262 1 259 4 -9 9 -462 14
-493 6z"/>
<path d="M1306 1981 c-15 -24 60 -41 82 -19 21 21 13 29 -13 12 -24 -16 -27
-15 -44 0 -12 11 -21 13 -25 7z"/>
<path d="M1472 1978 c12 -35 85 -33 96 1 3 9 -5 7 -22 -4 -25 -16 -28 -16 -45
-1 -21 19 -34 21 -29 4z"/>
<path d="M1395 1857 c-43 -17 -71 -35 -64 -41 3 -3 23 3 44 14 22 11 53 20 70
20 17 0 48 -9 70 -20 21 -11 40 -18 43 -16 6 7 -43 36 -79 46 -41 12 -46 12
-84 -3z"/>
<path d="M1261 1837 c9 -7 18 -19 22 -27 5 -13 6 -13 6 1 1 17 -18 39 -33 39
-6 0 -4 -6 5 -13z"/>
<path d="M1604 1836 c-12 -31 0 -61 27 -64 33 -4 53 20 45 53 -5 20 -13 25
-37 25 -16 0 -32 -6 -35 -14z m61 -26 c0 -20 -5 -25 -25 -25 -20 0 -26 6 -28
28 -3 26 -1 28 25 25 22 -2 28 -8 28 -28z"/>
<path d="M1217 1778 c2 -5 15 -8 28 -8 13 0 26 3 28 8 3 4 -10 7 -28 7 -18 0
-31 -3 -28 -7z"/>
<path d="M1142 1720 c-2 -75 7 -91 53 -89 27 2 27 2 5 6 -38 7 -44 18 -51 86
l-6 62 -1 -65z"/>
<path d="M1173 1691 c1 -14 9 -26 17 -28 10 -3 11 -2 4 4 -7 4 -14 17 -17 28
-5 16 -5 15 -4 -4z"/>
<path d="M1303 1648 c-2 -5 103 -7 234 -6 265 2 247 6 -40 10 -104 2 -191 0
-194 -4z"/>
<path d="M1362 1598 c-9 -4 69 -7 173 -7 105 1 186 2 180 4 -18 8 -336 10
-353 3z"/>
<path d="M1137 1533 c-4 -3 -2 -12 4 -20 8 -9 42 -13 125 -13 63 0 114 4 114
8 0 4 -47 7 -105 6 -58 -1 -108 2 -111 8 -4 6 29 8 85 7 51 -1 94 1 98 5 3 3
-41 6 -99 6 -57 0 -108 -3 -111 -7z"/>
<path d="M1753 1533 c9 -2 25 -2 35 0 9 3 1 5 -18 5 -19 0 -27 -2 -17 -5z"/>
<path d="M1720 1509 l-85 -5 98 -2 c53 -1 97 0 97 2 0 9 -30 11 -110 5z"/>
<path d="M1142 1428 c-8 -8 -9 -15 -1 -25 17 -19 691 -19 708 0 27 34 -6 37
-354 37 -248 0 -344 -3 -353 -12z m111 -15 c-7 -2 -21 -2 -30 0 -10 3 -4 5 12
5 17 0 24 -2 18 -5z m65 0 c-10 -2 -26 -2 -35 0 -10 3 -2 5 17 5 19 0 27 -2
18 -5z m70 0 c-10 -2 -26 -2 -35 0 -10 3 -2 5 17 5 19 0 27 -2 18 -5z m69 1
c-3 -3 -12 -4 -19 -1 -8 3 -5 6 6 6 11 1 17 -2 13 -5z m40 0 c-3 -3 -12 -4
-19 -1 -8 3 -5 6 6 6 11 1 17 -2 13 -5z m56 -1 c-7 -2 -21 -2 -30 0 -10 3 -4
5 12 5 17 0 24 -2 18 -5z"/>
<path d="M1142 1328 c-8 -8 -9 -15 -1 -25 9 -10 57 -13 206 -13 168 0 194 2
200 16 3 9 0 20 -8 25 -22 14 -383 11 -397 -3z m386 -13 c-7 -7 -359 -7 -366
-1 -3 4 79 6 183 6 104 0 186 -2 183 -5z"/>
<path d="M1612 1328 c-8 -8 -9 -15 -1 -25 16 -18 212 -18 228 0 8 10 7 17 -1
25 -16 16 -210 16 -226 0z m206 -14 c-8 -7 -179 -6 -186 1 -3 3 39 5 93 5 54
0 96 -3 93 -6z"/>
<path d="M1137 1216 c-3 -8 -3 -17 0 -20 8 -8 708 -8 716 0 3 3 3 12 0 20 -8
21 -708 21 -716 0z m573 -6 c0 -4 -56 -7 -124 -7 -69 1 -123 4 -120 8 6 10
244 9 244 -1z m-467 -7 c-7 -2 -19 -2 -25 0 -7 3 -2 5 12 5 14 0 19 -2 13 -5z
m110 0 c-13 -2 -35 -2 -50 0 -16 2 -5 4 22 4 28 0 40 -2 28 -4z m54 1 c-3 -3
-12 -4 -19 -1 -8 3 -5 6 6 6 11 1 17 -2 13 -5z m376 -1 c-7 -2 -19 -2 -25 0
-7 3 -2 5 12 5 14 0 19 -2 13 -5z"/>
<path d="M916 2410 l-26 -32 0 -668 c0 -497 3 -676 12 -695 22 -50 49 -55 273
-55 l205 0 0 -49 c0 -85 -24 -81 434 -81 378 0 404 1 419 18 15 17 17 74 17
613 0 450 -3 598 -12 607 -8 8 -46 11 -118 10 l-105 -2 100 -3 c79 -3 103 -7
113 -20 10 -14 11 -140 6 -603 -3 -322 -8 -588 -11 -592 -2 -5 -188 -8 -413
-8 -454 0 -420 -6 -420 70 l0 39 234 3 c214 3 236 5 255 22 32 29 25 41 -8 13
l-30 -25 -221 2 c-121 2 -223 -1 -226 -6 -3 -5 -11 -5 -17 -1 -7 5 -105 8
-218 8 l-207 0 -21 25 c-19 24 -20 37 -21 240 0 118 -1 423 -2 677 l-3 462 24
25 c14 14 22 28 19 31 -3 3 -17 -8 -32 -25z"/>
<path d="M2640 2115 c10 -12 10 -18 0 -30 -14 -17 0 -21 17 -4 8 8 13 8 17 0
4 -6 12 -11 18 -11 7 0 7 5 -1 14 -6 7 -8 22 -4 32 6 16 5 17 -9 6 -11 -9 -18
-10 -23 -2 -3 5 -11 10 -17 10 -7 0 -6 -6 2 -15z"/>
<path d="M415 1873 c-4 -12 -14 -24 -24 -26 -15 -4 -15 -5 0 -6 9 0 20 -11 24
-23 l8 -23 4 22 c2 12 12 24 21 26 16 4 16 5 0 6 -9 0 -19 11 -21 24 l-4 22
-8 -22z"/>
<path d="M2025 1739 c0 -94 1 -98 14 -67 8 21 11 52 8 85 -10 95 -22 85 -22
-18z"/>
<path d="M711 1321 l-34 -28 35 -26 c51 -39 58 -35 58 28 0 64 -9 68 -59 26z
m49 -26 c0 -39 -6 -42 -39 -19 l-24 17 24 18 c34 26 39 24 39 -16z"/>
<path d="M2036 1277 c8 -22 52 -33 67 -17 9 10 7 11 -11 5 -16 -5 -30 -1 -43
11 -18 16 -19 16 -13 1z"/>
<path d="M2090 1163 c19 -9 10 -22 -17 -26 -26 -4 -26 -4 2 -3 30 1 44 27 17
32 -7 1 -8 0 -2 -3z"/>
<path d="M2340 1125 c0 -8 -7 -15 -15 -15 -8 0 -15 -4 -15 -10 0 -5 7 -10 15
-10 8 0 15 -7 15 -15 0 -8 5 -15 10 -15 6 0 10 7 10 15 0 8 7 15 15 15 8 0 15
5 15 10 0 6 -7 10 -15 10 -8 0 -15 7 -15 15 0 8 -4 15 -10 15 -5 0 -10 -7 -10
-15z m20 -25 c0 -5 -4 -10 -10 -10 -5 0 -10 5 -10 10 0 6 5 10 10 10 6 0 10
-4 10 -10z"/>
<path d="M2060 1073 c56 -6 50 -21 -10 -26 l-50 -4 52 1 c40 1 53 5 53 16 0
11 -12 15 -43 16 l-42 1 40 -4z"/>
<path d="M1998 983 c74 -3 92 -7 92 -19 0 -8 5 -12 10 -9 8 5 7 11 -1 21 -9
10 -34 13 -103 12 l-91 -2 93 -3z"/>
<path d="M750 555 c0 -87 3 -105 15 -105 12 0 15 15 15 78 l0 77 50 -75 c71
-107 84 -103 88 28 2 95 1 103 -15 100 -15 -3 -18 -14 -17 -75 0 -40 -3 -70
-6 -68 -3 2 -26 35 -50 74 -28 45 -51 71 -62 71 -16 0 -18 -11 -18 -105z"/>
<path d="M1224 647 c-3 -8 -4 -54 -2 -103 3 -75 6 -89 21 -92 14 -3 17 4 17
42 l0 46 43 0 c70 0 102 55 57 100 -24 24 -127 29 -136 7z m115 -41 c4 -23
-24 -46 -56 -46 -20 0 -23 5 -23 36 0 35 1 35 37 32 28 -2 39 -8 42 -22z"/>
<path d="M1825 650 c-3 -6 -6 -20 -5 -33 3 -36 1 -38 -24 -22 -20 14 -29 14
-48 4 -31 -16 -38 -28 -38 -69 0 -48 24 -80 60 -80 16 0 32 5 35 10 5 8 11 7
21 -1 10 -8 18 -9 25 -2 14 14 7 195 -8 200 -6 2 -14 -1 -18 -7z m-17 -82 c26
-26 11 -88 -22 -88 -41 0 -58 38 -36 81 12 21 40 25 58 7z"/>
<path d="M2267 654 c-4 -4 -7 -17 -7 -30 0 -12 -6 -25 -12 -28 -10 -5 -10 -7
0 -12 7 -3 12 -26 12 -59 0 -58 15 -79 51 -73 29 4 37 28 10 28 -18 0 -21 6
-21 50 0 38 4 50 15 50 8 0 15 5 15 10 0 6 -6 10 -14 10 -8 0 -16 12 -18 27
-3 26 -18 39 -31 27z"/>
<path d="M1003 600 c-47 -19 -58 -92 -20 -128 50 -47 127 -11 127 59 0 28 -30
69 -49 69 -5 0 -15 2 -23 4 -7 3 -23 1 -35 -4z m68 -46 c12 -33 4 -61 -24 -75
-17 -10 -24 -8 -39 11 -10 12 -18 29 -18 37 0 53 62 74 81 27z"/>
<path d="M1427 604 c-4 -4 -7 -40 -7 -81 0 -58 3 -73 15 -73 11 0 15 11 15 39
0 22 4 51 10 66 8 21 14 24 35 19 18 -4 25 -2 25 9 0 22 -31 30 -48 13 -14
-13 -17 -13 -26 0 -7 8 -15 12 -19 8z"/>
<path d="M1573 600 c-46 -19 -59 -95 -21 -130 30 -27 73 -26 103 5 41 40 28
105 -26 124 -17 6 -32 11 -33 10 -1 0 -11 -4 -23 -9z m55 -32 c21 -21 15 -76
-10 -89 -18 -10 -24 -8 -40 11 -21 25 -22 43 -8 71 12 21 40 25 58 7z"/>
<path d="M1904 597 c-3 -8 -4 -40 -2 -72 4 -69 20 -86 67 -68 21 7 32 8 40 0
6 -6 13 -9 15 -6 10 10 9 140 -2 151 -15 15 -21 -1 -24 -67 -3 -44 -6 -50 -27
-53 -31 -5 -41 12 -41 70 0 46 -15 73 -26 45z"/>
<path d="M2113 595 c-43 -18 -55 -74 -26 -113 27 -36 83 -42 113 -12 16 16 19
25 11 33 -8 8 -17 5 -31 -11 -24 -25 -25 -26 -51 -12 -22 12 -27 68 -7 88 17
17 47 15 54 -3 8 -19 34 -20 34 -1 0 33 -53 50 -97 31z"/>
<path d="M1117 313 c-4 -3 -7 -51 -7 -105 0 -89 2 -99 18 -96 13 2 18 15 20
51 l3 47 45 0 c24 0 44 5 44 10 0 6 -20 10 -45 10 -43 0 -45 1 -45 30 0 29 1
30 50 30 38 0 50 4 50 15 0 12 -14 15 -63 15 -35 0 -67 -3 -70 -7z"/>
<path d="M1920 281 c0 -40 0 -40 -26 -26 -50 26 -100 -19 -89 -79 10 -56 61
-85 94 -53 11 9 14 10 18 0 3 -7 11 -13 19 -13 11 0 14 21 14 105 0 87 -3 105
-15 105 -11 0 -15 -11 -15 -39z m-10 -67 c14 -35 13 -41 -10 -64 -29 -29 -60
-11 -60 33 0 57 52 80 70 31z"/>
<path d="M1320 263 c-34 -12 -50 -37 -50 -75 0 -66 63 -101 117 -63 47 33 36
115 -19 134 -17 6 -31 11 -32 10 -1 0 -8 -3 -16 -6z m48 -35 c20 -20 15 -76
-7 -88 -25 -13 -27 -13 -45 6 -31 30 -15 94 24 94 9 0 21 -5 28 -12z"/>
<path d="M1457 264 c-14 -15 -7 -122 9 -138 19 -19 55 -21 72 -4 10 10 15 10
22 -2 18 -29 31 5 28 76 -2 53 -6 69 -18 69 -11 0 -16 -16 -20 -60 -5 -56 -7
-60 -30 -60 -23 0 -25 4 -30 59 -5 55 -16 76 -33 60z"/>
<path d="M1635 259 c-3 -9 -5 -45 -3 -80 2 -49 7 -64 18 -64 11 0 16 14 18 57
2 47 6 58 23 63 30 10 37 -3 41 -65 2 -41 7 -55 18 -55 11 0 16 13 18 44 6 88
-23 125 -77 98 -25 -12 -29 -12 -39 2 -9 15 -11 15 -17 0z"/>
</g>
</svg>
